<?xml version="1.0" encoding="UTF-8" standalone="no"?>
<svg
   xmlns:dc="http://purl.org/dc/elements/1.1/"
   xmlns:cc="http://creativecommons.org/ns#"
   xmlns:rdf="http://www.w3.org/1999/02/22-rdf-syntax-ns#"
   xmlns:svg="http://www.w3.org/2000/svg"
   xmlns="http://www.w3.org/2000/svg"
   height="150"
   width="150"
   id="svg840"
   version="1.1"
   image-rendering="auto"
   stroke-dashoffset="0"
   font-size="12"
   stroke-linejoin="miter"
   font-style="normal"
   font-family="'Dialog'"
   stroke-width="1"
   font-weight="normal"
   stroke-dasharray="none"
   fill="black"
   stroke-opacity="1"
   shape-rendering="auto"
   stroke-miterlimit="10"
   stroke-linecap="square"
   stroke="black"
   text-rendering="auto"
   color-interpolation="auto"
   color-rendering="auto"
   fill-opacity="1">
  <metadata
     id="metadata844">
    <rdf:RDF>
      <cc:Work
         rdf:about="">
        <dc:format>image/svg+xml</dc:format>
        <dc:type
           rdf:resource="http://purl.org/dc/dcmitype/StillImage" />
        <dc:title></dc:title>
      </cc:Work>
    </rdf:RDF>
  </metadata>
  <!--Unicode Character 'POCKET CALCULATOR' (U+1F5A9)-->
  <defs
     id="genericDefs" />
  <text
     id="text864"
     y="31.943398"
     x="64.226418"
     style="font-size:10.6667px;line-height:1.25;font-family:'Helvetica Neue';-inkscape-font-specification:'Helvetica Neue Normal';fill:#000000;stroke-width:0;stroke-miterlimit:10;stroke-dasharray:none"
     xml:space="preserve"><tspan
       style="font-style:normal;font-variant:normal;font-weight:normal;font-stretch:normal;font-family:'Digital Numbers';-inkscape-font-specification:'Digital Numbers';fill:#000000;stroke-width:0;stroke-miterlimit:10;stroke-dasharray:none"
       id="tspan870"
       y="31.943398"
       x="64.226418">58008</tspan></text>
  <g
     transform="translate(-18.962264,-215.66037)"
     id="g838">
    <g
       id="g836">
      <path
         id="path834"
         stroke="none"
         d="M 141.6094,365.0625 H 49.2188 V 216.4219 h 92.3906 z M 127.8281,251.5781 V 237.7969 H 63 v 13.7812 z m -5.625,32.9063 v -10.8282 h -14.0625 v 10.8282 z m 0,16.875 v -10.8282 h -14.0625 v 10.8282 z m -20.1093,-16.875 V 273.6562 H 88.0312 v 10.8282 z m 20.1093,33.75 v -10.8282 h -14.0625 v 10.8282 z m -20.1093,-16.875 V 290.5312 H 88.0312 v 10.8282 z M 81.9844,284.4844 V 273.6562 H 67.9219 v 10.8282 z m 40.2187,50.625 v -10.8282 h -14.0625 v 10.8282 z m -20.1093,-16.875 V 307.4062 H 88.0312 v 10.8282 z M 81.9844,301.3594 V 290.5312 H 67.9219 v 10.8282 z m 20.1094,33.75 V 324.2812 H 88.0312 v 10.8282 z M 81.9844,318.2344 V 307.4062 H 67.9219 v 10.8282 z m 0,16.875 V 324.2812 H 67.9219 v 10.8282 z" />
    </g>
  </g>
</svg>
