<?xml version="1.0" encoding="UTF-8" standalone="no"?>
<svg
   xmlns:dc="http://purl.org/dc/elements/1.1/"
   xmlns:cc="http://creativecommons.org/ns#"
   xmlns:rdf="http://www.w3.org/1999/02/22-rdf-syntax-ns#"
   xmlns:svg="http://www.w3.org/2000/svg"
   xmlns="http://www.w3.org/2000/svg"
   height="150"
   width="150"
   id="svg1060"
   version="1.1"
   image-rendering="auto"
   stroke-dashoffset="0"
   font-size="12"
   stroke-linejoin="miter"
   font-style="normal"
   font-family="'Dialog'"
   stroke-width="1"
   font-weight="normal"
   stroke-dasharray="none"
   fill="black"
   stroke-opacity="1"
   shape-rendering="auto"
   stroke-miterlimit="10"
   stroke-linecap="square"
   stroke="black"
   text-rendering="auto"
   color-interpolation="auto"
   color-rendering="auto"
   fill-opacity="1">
  <metadata
     id="metadata1064">
    <rdf:RDF>
      <cc:Work
         rdf:about="">
        <dc:format>image/svg+xml</dc:format>
        <dc:type
           rdf:resource="http://purl.org/dc/dcmitype/StillImage" />
        <dc:title></dc:title>
      </cc:Work>
    </rdf:RDF>
  </metadata>
  <!--Unicode Character 'ELECTRIC LIGHT BULB' (U+1F4A1)-->
  <defs
     id="genericDefs" />
  <g
     transform="matrix(0.40758119,0,0,0.4196086,13.82099,-45.474024)"
     id="g1058">
    <g
       id="g1056">
      <path
         id="path1054"
         stroke="none"
         d="m 279.2812,170.8594 -39.0937,24.75 q -2.1094,-2.1094 -6.4687,-9.7032 l 39.2343,-25.1718 q 0.1407,0.1406 6.3281,10.125 z m 7.5938,68.9062 h -44.1562 v -11.9531 h 44.1562 z m -7.5938,57.0938 -5.9062,10.125 -39.6562,-24.3282 q 1.2656,-2.8124 6.0468,-10.5468 z M 64.6875,185.4844 q -1.9687,3.375 -6.0469,10.125 l -39.5156,-24.75 q 3.9375,-6.6094 5.9062,-10.125 z m 161.8594,50.625 q 0,13.5 -4.3594,24.6094 -1.4063,3.9374 -10.9687,22.3593 -7.875,15.3281 -11.25,24.6094 -2.6719,7.4531 -3.2344,16.875 0,4.5 -0.7032,13.5 -0.5624,2.9531 -3.5156,8.8594 -2.5312,5.0625 -2.5312,9 0,2.8125 -1.2656,4.5 1.125,3.6562 1.125,4.3593 0,0.8438 -0.6407,2.25 -0.625,1.4063 -0.625,2.25 0,0.7032 0.3438,2.0313 0.3593,1.3437 0.3593,2.0469 0,7.7344 -0.8437,12.9375 -0.9844,6.3281 -7.3125,11.25 -1.8281,1.4062 -11.8125,7.1719 -1.6875,1.125 -5.0625,3.0937 -1.5469,0.2813 -4.5,1.2656 -0.7031,0.7031 -2.6719,1.9688 -0.4219,0.1406 -7.875,0.1406 -7.4531,0 -7.875,-0.1406 -0.8437,-0.7031 -2.6719,-1.9688 -1.5468,-0.2812 -4.5,-1.2656 -2.6718,-1.8281 -8.0156,-5.0625 -3.9375,-2.1094 -7.875,-4.2969 -3.9375,-2.1719 -6.4687,-5.6875 -2.1094,-2.9531 -2.1094,-10.5468 0,-0.7032 -0.2813,-2.1094 -0.2812,-1.4063 -0.2812,-2.1094 0,-0.8438 0.2812,-2.5312 0.2813,-1.6876 0.2813,-2.5313 0,-0.9844 -0.5625,-2.6719 -0.5625,-1.6875 -0.5625,-2.6718 0,-0.9844 0.3437,-2.9532 0.3594,-1.9687 0.3594,-2.9531 0,-5.7656 -1.4062,-10.2656 -0.9844,-1.5469 -2.8125,-4.7813 -1.9688,-3.9375 -2.6719,-8.5781 Q 102.2344,328.5 99,309.9375 95.0625,298.5469 89.1562,287.0156 77.4844,263.9531 76.9219,262.8281 q -5.0625,-12.5156 -5.0625,-26.7187 0,-33.4688 22.2187,-53.0156 21.0938,-18.4219 55.125,-18.4219 34.1719,0 55.125,18.4219 22.2188,19.4062 22.2188,53.0156 z M 55.6875,239.7656 H 11.5312 v -11.9531 h 44.1563 z m 9,42.3282 -39.2344,24.8906 Q 23.3438,303.75 19.125,297.2812 l 39.5156,-25.1718 q 2.1094,3.2344 6.0469,9.9844 z m 151.5937,-47.3907 q 0,-29.25 -19.2656,-45.8437 Q 178.875,173.25 149.2031,173.25 q -29.6719,0 -47.8125,15.75 -19.2656,16.5938 -19.2656,45.7031 0,12.5157 4.5,23.2031 1.2656,2.9532 10.9688,20.6719 7.4531,13.6407 11.1718,24.0469 3.7344,10.4062 3.7344,31.7812 0,6.75 5.0625,10.4063 3.9375,2.8125 31.6406,2.8125 26.5781,0 31.6407,-2.8125 4.0781,-2.25 4.9218,-9.9844 0.1406,-1.4062 0.1406,-12.0937 0,0.1406 0.7032,-5.3438 1.2656,-9.7031 4.0781,-17.4375 1.2656,-3.375 15.8906,-31.3593 9.7031,-18.4219 9.7031,-33.8907 z m -36.7031,115.5938 h -1.5469 q -4.7812,0 -14.4218,0.7031 -9.625,0.7031 -14.4063,0.7031 -4.7812,0 -14.4843,-0.7031 -9.7032,-0.7031 -14.4844,-0.7031 h -1.4063 v 5.0625 q 0,0.8437 1.5469,3.0312 1.5469,2.1719 1.5469,3.4375 0,0.8438 -1.3438,1.8281 -1.3281,0.9844 -1.3281,1.6876 0,0.5624 1.3281,2.1718 1.3438,1.625 1.3438,2.4688 0,0.7031 -1.125,2.3125 -1.125,1.625 -1.125,2.3281 0,0.7031 1.125,2.0312 1.125,1.3438 1.125,2.0469 0,0.7031 -0.9219,2.1094 -0.9062,1.4063 -0.9062,2.1094 0,1.2656 7.875,6.75 7.3124,5.2031 9.7031,6.0469 2.1093,0.2812 4.2187,0.7031 2.8125,0.4219 2.9532,1.9687 1.6874,0.1406 4.3593,0.1406 2.6719,0 4.2188,-0.1406 1.5469,-1.9687 4.6406,-1.9687 2.1094,0 10.125,-4.9219 7.5937,-4.6406 9.4219,-6.75 0.7031,-0.8438 0.7031,-3.0938 0,-0.8437 -0.9219,-2.3906 -0.9062,-1.5468 -0.9062,-2.3906 0,-0.7031 1.125,-2.3281 1.125,-1.6094 1.125,-2.3125 0,-0.7032 -1.125,-2.4688 -1.125,-1.75 -1.125,-2.4531 0,-0.5625 1.2656,-2.3125 1.2656,-1.7656 1.4062,-2.4688 -0.8437,-0.7031 -2.6718,-2.25 v -1.2656 q 0,-1.4062 1.5468,-3.6562 1.5469,-2.25 1.5469,-5.0625 z" />
    </g>
  </g>
</svg>
