<?xml version="1.0" encoding="UTF-8" standalone="no"?>
<svg
   xmlns:dc="http://purl.org/dc/elements/1.1/"
   xmlns:cc="http://creativecommons.org/ns#"
   xmlns:rdf="http://www.w3.org/1999/02/22-rdf-syntax-ns#"
   xmlns:svg="http://www.w3.org/2000/svg"
   xmlns="http://www.w3.org/2000/svg"
   height="220"
   width="250"
   id="svg840"
   version="1.1"
   image-rendering="auto"
   stroke-dashoffset="0"
   font-size="12"
   stroke-linejoin="miter"
   font-style="normal"
   font-family="'Dialog'"
   stroke-width="1"
   font-weight="normal"
   stroke-dasharray="none"
   fill="black"
   stroke-opacity="1"
   shape-rendering="auto"
   stroke-miterlimit="10"
   stroke-linecap="square"
   stroke="black"
   text-rendering="auto"
   color-interpolation="auto"
   color-rendering="auto"
   fill-opacity="1">
  <metadata
     id="metadata844">
    <rdf:RDF>
      <cc:Work
         rdf:about="">
        <dc:format>image/svg+xml</dc:format>
        <dc:type
           rdf:resource="http://purl.org/dc/dcmitype/StillImage" />
        <dc:title></dc:title>
      </cc:Work>
    </rdf:RDF>
  </metadata>
  <!--Unicode Character 'TROPHY' (U+1F3C6)-->
  <defs
     id="genericDefs" />
  <g
     transform="translate(-8.7735849,-156.79245)"
     id="g838">
    <g
       id="g836">
      <path
         id="path834"
         stroke="none"
         d="m 256.2188,201.2344 q 0,19.5468 -17.8594,29.25 -5.625,3.0937 -33.0469,10.9687 -17.8594,5.0625 -17.8594,13.5 0,11.6719 12.2344,11.6719 8.4375,0 8.2969,-9.5625 5.625,-0.1406 5.625,9.1406 0,6.4688 -6.75,9.8438 -5.3438,2.8125 -12.5156,2.8125 -7.4532,0 -12.2344,-3.375 -3.0938,23.3437 -34.0313,32.7656 v 5.0625 h 3.375 v 3.5156 h 6.6094 q 1.9687,0.8438 1.9687,3.0938 0,2.5312 -1.9687,4.5 h -6.3281 v 3.2343 h -3.6563 V 333 q 0,10.5469 1.8281,16.875 5.0626,0 8.4376,0.8438 5.4843,1.4062 5.4843,5.0624 11.25,-0.2812 11.25,12.5157 0,1.4062 -8.7187,2.8125 -16.875,2.8125 -32.7656,2.8125 -15.75,0 -31.6407,-2.6719 -9.1406,-1.5469 -9.1406,-2.9531 0,-12.7969 11.25,-12.5157 -0.1406,-3.6562 5.4844,-5.0624 3.375,-0.8438 8.5781,-0.8438 1.6875,-6.0469 1.6875,-17.0156 v -5.2032 h -3.6563 v -3.2343 h -6.1874 q -2.1094,-2.1094 -2.1094,-4.5 0,-2.25 2.1094,-3.0938 h 6.4687 v -3.5156 h 3.375 V 308.25 q -30.9375,-9.2812 -33.8906,-32.7656 -4.7813,3.375 -12.375,3.375 -7.1719,0 -12.5157,-2.8125 -6.6093,-3.375 -6.6093,-9.8438 0,-9.2812 5.4843,-9.1406 -0.2812,9.5625 8.2969,9.5625 12.375,0 12.375,-11.6719 0,-8.4375 -17.8593,-13.5 -27.5626,-7.875 -33.3282,-10.9687 -17.8594,-9.7032 -17.8594,-29.25 0,-21.7969 30.6563,-30.5156 2.6719,-2.3907 4.2187,-6.6094 h 7.0313 q 0.9844,9.1406 17.4375,9 l 0.2812,-3.375 q 11.25,-10.5469 62.7188,-10.5469 51.4688,0 62.8594,10.5469 l 0.2812,3.375 h 2.8125 q 13.6407,0 14.625,-9 h 7.0313 q 1.4062,4.2187 4.2187,6.6094 30.5157,8.7187 30.5157,30.5156 z m -9.9844,-0.9844 q 0,-10.8281 -7.0313,-14.2031 1.8281,5.9062 1.8281,11.6719 0,12.2343 -16.4531,23.7656 7.5938,0 14.625,-6.8125 7.0313,-6.8281 7.0313,-14.4219 z m -9.7032,-4.3594 q 0,-15.6094 -17.1562,-15.6094 -18.5625,0 -17.0156,18.2813 l -5.0625,2.6719 -6.4688,-11.8125 q -4.7812,19.9687 -6.8906,45.4219 5.2031,-4.2188 20.5313,-9.9844 15.8906,-5.9063 21.9374,-10.125 10.125,-7.3125 10.125,-18.8438 z m -52.4531,-26.4375 q -1.9687,-2.1093 -23.625,-4.2187 -18.2812,-1.8282 -26.4375,-1.8282 -27.7031,0 -49.7812,5.625 l -0.4219,0.4219 q 2.25,2.6719 23.625,4.3594 15.8906,1.2656 26.4375,1.2656 10.8281,0 26.7188,-1.2656 21.7968,-1.6875 23.4843,-4.3594 z m 4.3594,4.9219 q -5.2031,0.9844 -15.4687,3.5156 -2.9532,0.9844 -2.9532,3.5156 0,10.125 -0.1406,32.2032 l -0.1406,32.2031 q 0,41.2031 -31.3594,50.9063 21.7969,-0.7032 30.375,-18.9844 5.9062,-12.6563 6.75,-39.375 0.9844,-32.9063 2.1094,-38.5313 2.6718,-13.3593 10.8281,-25.4531 z m -57.9375,117 Q 110.9531,281.25 110.9531,234 q 0,-8.8594 0.9063,-26.7188 0.9218,-17.8593 0.9218,-26.5781 l -7.7343,-1.125 q 2.5312,9.8438 2.5312,18.8438 0,4.0781 -0.3593,12.0937 -0.3438,8.0156 -0.3438,12.0938 0,65.5312 23.625,68.7656 z m -0.9844,5.3438 q -13.0781,-3.9376 -20.1094,-20.9532 -5.625,-13.6406 -5.625,-29.9531 l -0.1406,-64.4063 q 0,-2.1093 -3.0937,-3.0937 -3.6563,-1.125 -20.9531,-3.9375 7.875,11.6719 10.5468,25.4531 1.9688,29.6719 3.9375,59.4844 5.4844,36.4219 35.4375,37.4063 z m -45.5625,-61.875 q -2.25,-25.4532 -6.8906,-45.4219 l -6.4687,11.8125 -5.0626,-2.6719 q 0.1407,-2.6719 0.1407,-4.0781 0,-14.2032 -17.0157,-14.2032 -17.2968,0 -17.2968,15.6094 0,11.5313 10.125,18.8438 6.0468,4.3594 21.6562,10.2031 15.6094,5.8281 20.8125,9.9063 z M 36,228.0938 q -16.7344,-8.0157 -16.7344,-27.1407 0,-11.8125 9.9844,-21.0937 -14.4844,3.2344 -14.4844,21.6562 0,8.8594 6.4688,16.4532 5.9062,6.75 14.7656,10.125 z m 132.75,134.2968 h -3.0938 q -5.3437,0 -16.0312,0.3594 -10.6875,0.3438 -16.0312,0.3438 -5.7657,0 -17.2969,-0.3438 -11.5313,-0.3594 -17.0157,-0.3594 14.9063,3.6563 34.3126,3.6563 19.2656,0 35.1562,-3.6563 z" />
    </g>
  </g>
</svg>
