<?xml version="1.0" encoding="UTF-8" standalone="no"?>
<svg
   xmlns:dc="http://purl.org/dc/elements/1.1/"
   xmlns:cc="http://creativecommons.org/ns#"
   xmlns:rdf="http://www.w3.org/1999/02/22-rdf-syntax-ns#"
   xmlns:svg="http://www.w3.org/2000/svg"
   xmlns="http://www.w3.org/2000/svg"
   height="250"
   width="250"
   id="svg884"
   version="1.1"
   image-rendering="auto"
   stroke-dashoffset="0"
   font-size="12"
   stroke-linejoin="miter"
   font-style="normal"
   font-family="'Dialog'"
   stroke-width="1"
   font-weight="normal"
   stroke-dasharray="none"
   fill="black"
   stroke-opacity="1"
   shape-rendering="auto"
   stroke-miterlimit="10"
   stroke-linecap="square"
   stroke="black"
   text-rendering="auto"
   color-interpolation="auto"
   color-rendering="auto"
   fill-opacity="1">
  <metadata
     id="metadata888">
    <rdf:RDF>
      <cc:Work
         rdf:about="">
        <dc:format>image/svg+xml</dc:format>
        <dc:type
           rdf:resource="http://purl.org/dc/dcmitype/StillImage" />
        <dc:title></dc:title>
      </cc:Work>
    </rdf:RDF>
  </metadata>
  <!--Unicode Character 'STOPWATCH' (U+23F1)-->
  <defs
     id="genericDefs" />
  <g
     transform="matrix(0.9862543,0,0,0.98045055,-17.979381,-138.53196)"
     id="g882">
    <g
       id="g880">
      <path
         id="path878"
         stroke="none"
         d="m 255.9375,189.7031 -16.875,16.7344 q -8.1563,-10.125 -18.2813,-18.2813 l 16.7344,-16.875 q 9.9844,8.4376 18.4219,18.4219 z m -90.8437,-22.7812 q -10.125,-1.8281 -21.0938,-1.8281 -10.9688,0 -21.0938,1.8281 v -22.7813 q 10.2657,-1.5468 21.0938,-1.5468 10.8281,0 21.0938,1.5468 z M 256.5,283.2188 q 0,46.4062 -33.0469,79.4531 -33.0469,33.0469 -79.4531,33.0469 -46.4062,0 -79.4531,-33.0469 Q 31.5,329.625 31.5,283.2188 31.5,236.8125 64.5469,203.7656 97.5938,170.7188 144,170.7188 q 46.4062,0 79.4531,33.0468 33.0469,33.0469 33.0469,79.4532 z m -15.75,0 q 0,-39.9376 -28.4062,-68.3438 Q 183.9375,186.4688 144,186.4688 q -39.9375,0 -68.3438,28.4062 -28.4062,28.4062 -28.4062,68.3438 0,39.9374 28.4062,68.3437 28.4063,28.4063 68.3438,28.4063 39.9375,0 68.3438,-28.4063 28.4062,-28.4063 28.4062,-68.3437 z m -47.8125,-73.9688 -5.4844,8.2969 q -4.6406,-3.0938 -8.2969,-4.9219 l 4.3594,-8.7188 q 5.625,2.8126 9.4219,5.3438 z m 30.375,34.4531 -8.7187,4.3594 q -1.8282,-3.7969 -4.9219,-8.2969 l 8.2969,-5.4844 q 2.5312,3.7969 5.3437,9.4219 z m 9.4219,42.3281 q 0,-0.5624 -0.1406,2.6719 L 222.75,288 q 0.2812,-4.7812 0,-9.5625 l 9.8438,-0.7031 q 0.1406,3.2344 0.1406,2.6718 z m -76.7813,-68.3437 h -6.4687 v 81.1406 h -10.9688 v -81.1406 h -6.4687 L 144,193.7812 Z m -47.1093,-5.0625 q -3.7969,1.8281 -8.2969,4.9219 L 95.0625,209.25 q 3.7969,-2.5312 9.4219,-5.3438 z m 114.4687,110.1094 q -2.8125,5.625 -5.3437,9.4218 l -8.2969,-5.4843 q 3.0937,-4.5 4.9219,-8.2969 z M 78.3281,239.7656 q -3.0937,4.5 -4.9219,8.2969 l -8.7187,-4.3594 q 2.8125,-5.625 5.3437,-9.4219 z m 114.6094,117.4219 q -3.7969,2.5313 -9.4219,5.3437 l -4.3594,-8.7187 q 3.7969,-1.8281 8.2969,-4.9219 z M 65.25,288 l -9.8438,0.7031 q -0.1406,-2.9531 -0.1406,-2.5312 v -5.7657 q 0,0.5626 0.1406,-2.6718 l 9.8438,0.7031 q -0.2812,4.7813 0,9.5625 z m 84.2344,83.8125 q -3.2344,0.1406 -2.6719,0.1406 h -5.625 q 0.5625,0 -2.6719,-0.1406 l 0.7032,-9.8437 q 4.7812,0.2812 9.5624,0 z m -71.1563,-45.1406 -8.2969,5.4843 Q 67.5,328.3594 64.6875,322.7344 l 8.7187,-4.3594 q 1.8282,3.7969 4.9219,8.2969 z m 30.5157,27.1406 -4.3594,8.7187 q -5.625,-2.8124 -9.4219,-5.3437 l 5.4844,-8.2969 q 4.5,3.0938 8.2969,4.9219 z" />
    </g>
  </g>
</svg>
